<?xml version="1.0" encoding="UTF-8" standalone="no"?>
<svg
   width="64"
   height="64"
   viewBox="0 0 64 64"
   version="1.1"
   id="svg81"
   xmlns="http://www.w3.org/2000/svg"
   xmlns:svg="http://www.w3.org/2000/svg">
  <defs
     id="defs17">
    <linearGradient
       id="gg"
       x1="0"
       y1="0"
       x2="0"
       y2="1">
      <stop
         offset="0"
         stop-color="#eeeeec"
         id="stop2" />
      <stop
         offset="1"
         stop-color="#888a85"
         id="stop4" />
    </linearGradient>
    <linearGradient
       id="gh"
       x1="0"
       y1="0"
       x2="0"
       y2="1">
      <stop
         offset="0"
         stop-color="#729fcf"
         id="stop7" />
      <stop
         offset="1"
         stop-color="#204a87"
         id="stop9" />
    </linearGradient>
    <linearGradient
       id="gp"
       x1="0"
       y1="0"
       x2="0"
       y2="1">
      <stop
         offset="0"
         stop-color="#8ae234"
         id="stop12" />
      <stop
         offset="1"
         stop-color="#4e9a06"
         id="stop14" />
    </linearGradient>
  </defs>
  <path
     d="M25 7.5V4"
     stroke="#555753"
     stroke-width="2.4"
     id="path19" />
  <circle
     cx="25"
     cy="3.4"
     r="2.8"
     fill="#ef2929"
     stroke="#a40000"
     stroke-width="1.2"
     id="circle21" />
  <rect
     x="14"
     y="7"
     width="22"
     height="17"
     rx="5"
     fill="url(#gh)"
     stroke="#0b1e3a"
     stroke-width="1.8"
     stroke-linejoin="round"
     id="rect23" />
  <path
     d="M18 9.8h14"
     stroke="#fff"
     stroke-opacity="0.4"
     stroke-width="1.3"
     stroke-linecap="round"
     id="path25" />
  <rect
     x="17"
     y="12"
     width="16"
     height="7"
     rx="3.5"
     fill="#0b1e3a"
     id="rect27" />
  <circle
     cx="21"
     cy="15.5"
     r="2"
     fill="#8ae234"
     id="circle29" />
  <circle
     cx="29"
     cy="15.5"
     r="2"
     fill="#8ae234"
     id="circle31" />
  <rect
     x="22"
     y="24"
     width="6"
     height="3"
     fill="#a9aca5"
     stroke="#2e3436"
     stroke-width="1.6"
     id="rect33" />
  <path
     d="M11 30 L8 41"
     stroke="#2e3436"
     stroke-width="6.5"
     stroke-linecap="round"
     id="path35" />
  <path
     d="M11 30 L8 41"
     stroke="#a9aca5"
     stroke-width="3.5"
     stroke-linecap="round"
     id="path37" />
  <g
     transform="rotate(14.2,-168.76231,52.409647)"
     id="g45">
    <path
       d="M 0,1 -2.9,5.4 M 0,1.2 v 5 M 0,1 2.9,5.4"
       fill="none"
       stroke="#2e3436"
       stroke-width="2.5"
       stroke-linecap="round"
       id="path39" />
    <path
       d="M 0,1 -2.9,5.4 M 0,1.2 v 5 M 0,1 2.9,5.4"
       fill="none"
       stroke="#a9aca5"
       stroke-width="0.9"
       stroke-linecap="round"
       id="path41" />
    <path
       id="circle43"
       style="fill:#a9aca5;stroke:#2e3436;stroke-width:1.5"
       d="M 2.5999999,0 A 2.5999999,2.5999999 0 0 1 0,2.5999999 2.5999999,2.5999999 0 0 1 -2.5999999,0 2.5999999,2.5999999 0 0 1 0,-2.5999999 2.5999999,2.5999999 0 0 1 2.5999999,0 Z" />
  </g>
  <path
     d="M39 30 L43 21"
     stroke="#2e3436"
     stroke-width="6.5"
     stroke-linecap="round"
     id="path47" />
  <path
     d="M39 30 L43 21"
     stroke="#a9aca5"
     stroke-width="3.5"
     stroke-linecap="round"
     id="path49" />
  <g
     transform="rotate(-156.4,23.884653,4.9248516)"
     id="g57">
    <path
       d="M 0,1 -2.9,5.4 M 0,1.2 v 5 M 0,1 2.9,5.4"
       fill="none"
       stroke="#2e3436"
       stroke-width="2.5"
       stroke-linecap="round"
       id="path51" />
    <path
       d="M 0,1 -2.9,5.4 M 0,1.2 v 5 M 0,1 2.9,5.4"
       fill="none"
       stroke="#a9aca5"
       stroke-width="0.9"
       stroke-linecap="round"
       id="path53" />
    <path
       id="circle55"
       style="fill:#a9aca5;stroke:#2e3436;stroke-width:1.5"
       d="M 2.5999999,0 A 2.5999999,2.5999999 0 0 1 0,2.5999999 2.5999999,2.5999999 0 0 1 -2.5999999,0 2.5999999,2.5999999 0 0 1 0,-2.5999999 2.5999999,2.5999999 0 0 1 2.5999999,0 Z" />
  </g>
  <rect
     x="16"
     y="46"
     width="6"
     height="10"
     fill="#a9aca5"
     stroke="#2e3436"
     stroke-width="1.6"
     id="rect59" />
  <rect
     x="13.5"
     y="55.5"
     width="11"
     height="5.5"
     rx="2"
     fill="#888a85"
     stroke="#2e3436"
     stroke-width="1.6"
     id="rect61" />
  <rect
     x="28"
     y="46"
     width="6"
     height="10"
     fill="#a9aca5"
     stroke="#2e3436"
     stroke-width="1.6"
     id="rect63" />
  <rect
     x="25.5"
     y="55.5"
     width="11"
     height="5.5"
     rx="2"
     fill="#888a85"
     stroke="#2e3436"
     stroke-width="1.6"
     id="rect65" />
  <rect
     x="11"
     y="27"
     width="28"
     height="21"
     rx="4"
     fill="url(#gh)"
     stroke="#0b1e3a"
     stroke-width="1.8"
     stroke-linejoin="round"
     id="rect67" />
  <path
     d="M15 30.5h20"
     stroke="#fff"
     stroke-opacity="0.4"
     stroke-width="1.4"
     stroke-linecap="round"
     id="path69" />
  <rect
     x="14"
     y="33"
     width="22"
     height="11"
     rx="2.5"
     fill="#0b1e3a"
     id="rect71" />
  <g
     aria-label="MCP"
     id="text73"
     style="font-weight:bold;font-size:8.2px;font-family:'DejaVu Sans';letter-spacing:-0.3;text-anchor:middle;fill:#8ae234">
    <path
       d="m 15.958887,35.522168 h 1.961914 l 1.361328,3.199121 1.369336,-3.199121 h 1.95791 V 41.5 H 21.151953 V 37.127734 L 19.77461,40.350879 H 18.797656 L 17.420313,37.127734 V 41.5 h -1.461426 z"
       id="path87" />
    <path
       d="m 28.559472,41.17168 q -0.424414,0.220215 -0.884863,0.332324 -0.460449,0.112109 -0.960937,0.112109 -1.493457,0 -2.366309,-0.832812 -0.872851,-0.836817 -0.872851,-2.266211 0,-1.433398 0.872851,-2.266211 0.872852,-0.836816 2.366309,-0.836816 0.500488,0 0.960937,0.112109 0.460449,0.112109 0.884863,0.332324 v 1.237207 q -0.428418,-0.292285 -0.844824,-0.428418 -0.416406,-0.136133 -0.876855,-0.136133 -0.824805,0 -1.297266,0.528516 -0.472461,0.528516 -0.472461,1.457422 0,0.924902 0.472461,1.453418 0.472461,0.528515 1.297266,0.528515 0.460449,0 0.876855,-0.136132 0.416406,-0.136133 0.844824,-0.428418 z"
       id="path89" />
    <path
       d="m 29.536718,35.522168 h 2.558496 q 1.141114,0 1.749707,0.508496 0.612598,0.504492 0.612598,1.441406 0,0.940918 -0.612598,1.449414 -0.608593,0.504493 -1.749707,0.504493 H 31.078222 V 41.5 h -1.541504 z m 1.541504,1.11709 v 1.669629 h 0.852832 q 0.448438,0 0.692676,-0.216211 0.244238,-0.220215 0.244238,-0.620606 0,-0.40039 -0.244238,-0.616601 -0.244238,-0.216211 -0.692676,-0.216211 z"
       id="path91" />
  </g>
  <g
     transform="translate(44,38.5)"
     id="g79">
    <path
       id="circle75"
       style="fill:url(#gp);stroke:#2c5a07;stroke-width:1.6"
       d="M 6.3000002,0 A 6.3000002,6.3000002 0 0 1 0,6.3000002 6.3000002,6.3000002 0 0 1 -6.3000002,0 6.3000002,6.3000002 0 0 1 0,-6.3000002 6.3000002,6.3000002 0 0 1 6.3000002,0 Z" />
    <path
       d="M -3.6,0 H 3.6 M 0,-3.6 v 7.2"
       stroke="#ffffff"
       stroke-width="2.6"
       stroke-linecap="round"
       id="path77" />
  </g>
</svg>
